PathFileType	4	(X/Y/Z)	Walk7.trc
DataRate	CameraRate	NumFrames	NumMarkers	Units	OrigDataRate	OrigDataStartFrame	OrigNumFrames
200.000000	200.000000	8	59	mm	200.000000	487	565
Frame#	Times		CLAV		STRN		RBack		RASI		RACR1		RUA1		RElbow		RFA1		RWRU		LACR1		LUA1		LFA1		LCAR		RTH1		RTH3		RTH2		RLFC		LTH1		LTH3		LLFC		LTB1		LTB3		LTB4		LMT1		LASI		LTH4		RCAR		LTH2		C7		LTB2		LToe		T10		LMMAL		RFHD		RTH4		LFHD		RPSI		LMT5		LLMAL		RWRR		LElbowM		LPSI		RBHD		RTB1		LElbow		LBHD		RTB2		RTB4		RTB3		RMT1		RToe		LWRU		LWRR		RMMAL		RLMAL		RMT5		RCAL		RElbowM		LCAL
			X1	Y1	Z1	X2	Y2	Z2	X3	Y3	Z3	X4	Y4	Z4	X5	Y5	Z5	X6	Y6	Z6	X7	Y7	Z7	X8	Y8	Z8	X9	Y9	Z9	X10	Y10	Z10	X11	Y11	Z11	X12	Y12	Z12	X13	Y13	Z13	X14	Y14	Z14	X15	Y15	Z15	X16	Y16	Z16	X17	Y17	Z17	X18	Y18	Z18	X19	Y19	Z19	X20	Y20	Z20	X21	Y21	Z21	X22	Y22	Z22	X23	Y23	Z23	X24	Y24	Z24	X25	Y25	Z25	X26	Y26	Z26	X27	Y27	Z27	X28	Y28	Z28	X29	Y29	Z29	X30	Y30	Z30	X31	Y31	Z31	X32	Y32	Z32	X33	Y33	Z33	X34	Y34	Z34	X35	Y35	Z35	X36	Y36	Z36	X37	Y37	Z37	X38	Y38	Z38	X39	Y39	Z39	X40	Y40	Z40	X41	Y41	Z41	X42	Y42	Z42	X43	Y43	Z43	X44	Y44	Z44	X45	Y45	Z45	X46	Y46	Z46	X47	Y47	Z47	X48	Y48	Z48	X49	Y49	Z49	X50	Y50	Z50	X51	Y51	Z51	X52	Y52	Z52	X53	Y53	Z53	X54	Y54	Z54	X55	Y55	Z55	X56	Y56	Z56	X57	Y57	Z57	X58	Y58	Z58	X59	Y59	Z59

487	2.435	686.75	1331.8	-42.578	763.71	1106.9	-30.842	519.26	1307.2	64.224	710.57	930.93	113.84	638.67	1349.1	129.73	633.22	1142.1	202.67	620.98	1035.9	234.62	717.45	913.08	226.47	723.36	800.19	235.44	622.91	1337	-211.83	569.29	1133.1	-247.58	544.28	891.76	-267.05	514.41	730.74	-270.54	615.06	728.07	159.99	608.24	540.73	132.97	674.4	640.07	111.07	584.57	444.08	122.81	647.49	735.78	-189.14	710.36	563.5	-152.71	734.14	457.88	-140.25	774.51	363.22	-61.138	765.36	176.01	-56.811	771.63	267.75	-62.963	918.94	30.083	-86.162	716.88	928.71	-145.08	679.15	645.76	-171.42	780.8	779.17	228.17	746.61	672.5	-144.58	559.92	1408.2	-39.21	744.03	269.37	-128.78	876.88	38.708	-59.925	527.55	1125.2	-22.474	744.14	75.754	-19.566	721.82	1584.2	-6.1872	611.02	633.91	144.45	713.07	1580.1	-78.774	497.05	966.12	48.614	836.32	20.84	-136.14	726.39	60.51	-98.984	766.41	824.33	180.4	513.18	1012.3	-181.28	497.51	964.46	-67.014	555.21	1533	35.565	527.85	327.82	64.61	526.4	1020.6	-250.93	545.58	1537	-91	449.29	292.65	141.25	451.85	274.63	72.152	377.22	220.74	79.04	331.08	47.517	72.496	356.95	28.843	102.28	480.27	785.85	-276.14	536.01	771.95	-230.66	294.43	178.74	58.232	271.69	183.38	136.14	292.24	54.16	147.83	219.76	199.45	91.76	600.59	1008.9	154.34	680.07	28	-43.853
488	2.44	692.33	1332.6	-43.508	769.24	1107.7	-31.678	524.75	1307.9	63.139	716.45	932.04	112.71	644.11	1350	128.72	637.66	1142.9	201.67	624.73	1036.7	233.39	720.51	913.29	225.97	725.51	800.38	235.22	628.79	1337.8	-212.81	576.07	1133.6	-248.72	551.95	892.19	-267.81	522.67	731.08	-271.16	622.51	728.58	158.93	618.17	541.05	132.41	683.14	641.17	110.48	595.63	444.6	122.51	652.22	736.01	-190.11	714.17	563.47	-153.4	737.38	457.77	-140.78	777.14	362.89	-61.586	766.37	175.77	-56.972	773.43	267.44	-63.268	919.07	30.055	-86.362	722.54	929.41	-145.9	683.38	645.87	-172.22	782.79	778.76	228.18	751.14	672.27	-145.82	565.52	1408.9	-40.314	745.81	269.18	-129.11	876.84	38.762	-59.951	533.2	1125.9	-23.48	744.23	75.764	-19.582	727.65	1584.8	-7.1287	619.7	634.28	143.62	718.96	1580.7	-79.723	502.58	966.63	47.619	836.3	20.873	-136.26	726.43	60.544	-98.983	769.03	824.02	180.28	519.72	1012.9	-182.62	503.09	965.2	-67.992	560.93	1533.9	34.471	538.41	328.96	64.519	533.48	1021.1	-252.29	551.41	1537.8	-92.103	459.51	294.8	141.31	461.79	276.61	72.231	386.61	223.5	79.295	336.52	49.529	73.054	361.26	29.749	102.61	488.36	786.05	-277.21	543.81	772.53	-231.3	303.38	182.46	58.723	280.61	187.55	136.59	298.07	57.583	147.9	229.02	204.74	92.199	604.98	1010	152.93	680.09	28.028	-43.817
489	2.445	697.86	1333.3	-44.415	774.73	1108.5	-32.477	530.2	1308.7	62.063	722.28	933.17	111.69	649.48	1350.9	127.76	642.01	1143.7	200.71	628.43	1037.5	232.18	723.51	913.48	225.48	727.62	800.56	235.02	634.61	1338.6	-213.76	582.83	1134.2	-249.84	559.7	892.6	-268.58	531.07	731.39	-271.78	629.93	729.17	157.9	628.02	541.49	131.86	691.82	642.37	109.94	606.65	445.24	122.19	656.89	736.24	-191.03	717.89	563.42	-154.07	740.51	457.63	-141.28	779.66	362.55	-62.01	767.33	175.53	-57.126	775.15	267.13	-63.554	919.19	30.043	-86.575	728.12	930.11	-146.74	687.55	645.97	-172.98	784.73	778.35	228.18	755.59	672.01	-146.98	571.07	1409.6	-41.386	747.55	268.98	-129.43	876.8	38.828	-59.998	538.8	1126.6	-24.48	744.31	75.778	-19.601	733.48	1585.3	-8.0355	628.32	634.75	142.82	724.84	1581.3	-80.636	508.09	967.16	46.627	836.28	20.895	-136.37	726.47	60.576	-98.988	771.58	823.7	180.16	526.29	1013.5	-183.96	508.64	965.94	-68.96	566.64	1534.7	33.416	549.02	330.18	64.367	540.59	1021.6	-253.66	557.22	1538.7	-93.167	469.81	296.92	141.29	471.84	278.59	72.214	396.16	226.21	79.423	342.68	51.643	73.643	366.4	30.839	103.04	496.59	786.21	-278.31	551.71	773.07	-231.93	312.55	186.02	59.051	289.72	191.55	136.87	304.53	61.031	148	238.46	209.65	92.438	609.33	1011	151.55	680.11	28.061	-43.777
490	2.45	703.36	1334.1	-45.301	780.19	1109.2	-33.242	535.6	1309.4	60.997	728.05	934.33	110.76	654.81	1351.7	126.84	646.29	1144.5	199.79	632.11	1038.2	230.99	726.47	913.64	225.02	729.67	800.73	234.83	640.36	1339.4	-214.68	589.56	1134.7	-250.95	567.53	892.99	-269.34	539.62	731.67	-272.41	637.3	729.85	156.91	637.77	542.04	131.33	700.43	643.64	109.43	617.61	446	121.86	661.52	736.46	-191.92	721.54	563.36	-154.71	743.55	457.48	-141.76	782.09	362.2	-62.403	768.25	175.29	-57.271	776.8	266.82	-63.819	919.3	30.037	-86.793	733.6	930.79	-147.59	691.66	646.06	-173.71	786.62	777.92	228.17	759.97	671.74	-148.05	576.59	1410.3	-42.427	749.25	268.77	-129.74	876.76	38.9	-60.061	544.36	1127.4	-25.475	744.41	75.795	-19.622	739.29	1585.9	-8.9064	636.87	635.32	142.04	730.7	1581.9	-81.514	513.59	967.72	45.643	836.26	20.907	-136.47	726.52	60.607	-98.999	774.07	823.36	180.04	532.88	1014	-185.3	514.16	966.67	-69.913	572.32	1535.5	32.4	559.67	331.47	64.156	547.72	1022	-255.03	563.01	1539.7	-94.191	480.18	299.01	141.18	481.99	280.56	72.105	405.86	228.84	79.427	349.6	53.836	74.262	372.42	32.108	103.55	504.94	786.32	-279.42	559.7	773.59	-232.56	321.92	189.39	59.216	299.02	195.36	136.99	311.63	64.464	148.14	248.04	214.15	92.473	613.63	1012	150.21	680.13	28.099	-43.732
491	2.455	708.81	1334.8	-46.167	785.6	1110	-33.975	540.95	1310.2	59.943	733.74	935.49	109.92	660.09	1352.5	125.96	650.5	1145.3	198.91	635.75	1039	229.82	729.37	913.79	224.58	731.68	800.89	234.64	646.04	1340.1	-215.57	596.27	1135.3	-252.03	575.42	893.36	-270.11	548.31	731.92	-273.04	644.61	730.6	155.97	647.38	542.71	130.82	708.94	645	108.96	628.49	446.88	121.52	666.11	736.69	-192.77	725.13	563.3	-155.33	746.5	457.31	-142.2	784.43	361.84	-62.764	769.13	175.05	-57.403	778.39	266.51	-64.058	919.4	30.034	-87.01	739	931.48	-148.46	695.71	646.14	-174.4	788.44	777.48	228.15	764.27	671.45	-149.04	582.06	1411	-43.438	750.92	268.56	-130.03	876.73	38.973	-60.133	549.86	1128.1	-26.466	744.5	75.812	-19.642	745.08	1586.5	-9.7405	645.32	636	141.29	736.54	1582.6	-82.355	519.09	968.3	44.67	836.24	20.908	-136.57	726.58	60.636	-99.012	776.49	823	179.92	539.49	1014.4	-186.64	519.66	967.4	-70.847	577.99	1536.4	31.421	570.34	332.82	63.887	554.88	1022.5	-256.39	568.77	1540.6	-95.176	490.6	301.07	140.97	492.22	282.53	71.906	415.7	231.38	79.31	357.27	56.076	74.907	379.32	33.54	104.15	513.43	786.39	-280.53	567.78	774.07	-233.17	331.5	192.55	59.219	308.49	198.95	136.95	319.37	67.841	148.31	257.77	218.22	92.305	617.87	1012.9	148.89	680.15	28.143	-43.683
492	2.46	714.22	1335.5	-47.016	790.99	1110.7	-34.678	546.27	1310.9	58.899	739.37	936.64	109.18	665.32	1353.3	125.12	654.65	1146	198.07	639.37	1039.7	228.68	732.23	913.91	224.16	733.65	801.04	234.46	651.65	1340.9	-216.43	602.94	1135.8	-253.09	583.37	893.71	-270.87	557.14	732.16	-273.68	651.85	731.42	155.07	656.86	543.48	130.33	717.36	646.43	108.54	639.3	447.89	121.15	670.68	736.92	-193.57	728.66	563.24	-155.91	749.37	457.13	-142.62	786.68	361.49	-63.087	769.97	174.82	-57.519	779.92	266.2	-64.269	919.49	30.03	-87.221	744.32	932.15	-149.35	699.72	646.22	-175.06	790.21	777.03	228.12	768.51	671.15	-149.94	587.5	1411.8	-44.42	752.55	268.35	-130.3	876.7	39.042	-60.209	555.33	1128.8	-27.452	744.6	75.829	-19.659	750.86	1587	-10.537	653.67	636.77	140.58	742.36	1583.2	-83.159	524.58	968.92	43.713	836.23	20.901	-136.67	726.64	60.664	-99.026	778.85	822.62	179.79	546.12	1014.8	-187.97	525.12	968.12	-71.76	583.63	1537.2	30.481	581.02	334.23	63.56	562.05	1022.8	-257.74	574.51	1541.6	-96.122	501.05	303.1	140.68	502.53	284.46	71.62	425.68	233.81	79.076	365.69	58.33	75.576	387.11	35.104	104.82	522.04	786.42	-281.66	575.95	774.52	-233.77	341.27	195.49	59.066	318.12	202.32	136.75	327.76	71.128	148.52	267.62	221.85	91.941	622.06	1013.8	147.61	680.17	28.193	-43.631
493	2.465	719.59	1336.3	-47.849	796.34	1111.4	-35.355	551.56	1311.6	57.867	744.93	937.78	108.52	670.51	1354	124.32	658.75	1146.7	197.25	642.99	1040.4	227.56	735.05	914.01	223.75	735.57	801.17	234.29	657.2	1341.6	-217.27	609.57	1136.3	-254.12	591.38	894.05	-271.64	566.09	732.38	-274.32	659.01	732.31	154.21	666.18	544.34	129.85	725.68	647.92	108.17	650.02	449.02	120.75	675.23	737.16	-194.34	732.15	563.18	-156.47	752.18	456.94	-143	788.84	361.13	-63.373	770.78	174.59	-57.615	781.38	265.89	-64.45	919.58	30.022	-87.421	749.56	932.83	-150.27	703.7	646.3	-175.67	791.92	776.57	228.09	772.7	670.84	-150.76	592.91	1412.5	-45.373	754.16	268.13	-130.55	876.68	39.104	-60.286	560.76	1129.6	-28.433	744.71	75.845	-19.671	756.62	1587.6	-11.297	661.92	637.64	139.9	748.16	1583.8	-83.925	530.06	969.56	42.775	836.21	20.887	-136.76	726.72	60.691	-99.039	781.15	822.23	179.67	552.78	1015.1	-189.3	530.55	968.84	-72.649	589.26	1538.1	29.577	591.71	335.68	63.175	569.24	1023.2	-259.06	580.22	1542.5	-97.03	511.53	305.09	140.3	512.92	286.36	71.253	435.78	236.13	78.73	374.83	60.56	76.265	395.76	36.764	105.57	530.77	786.41	-282.79	584.19	774.94	-234.35	351.22	198.19	58.761	327.92	205.44	136.41	336.77	74.291	148.76	277.6	225.03	91.387	626.19	1014.6	146.37	680.2	28.249	-43.576
494	2.47	724.94	1337	-48.666	801.67	1112.1	-36.008	556.81	1312.4	56.849	750.41	938.89	107.94	675.67	1354.8	123.55	662.81	1147.4	196.46	646.59	1041.1	226.46	737.83	914.09	223.35	737.46	801.29	234.11	662.69	1342.3	-218.08	616.17	1136.8	-255.13	599.45	894.38	-272.4	575.18	732.6	-274.98	666.09	733.26	153.4	675.35	545.3	129.38	733.9	649.48	107.85	660.65	450.25	120.34	679.77	737.41	-195.06	735.6	563.12	-156.99	754.91	456.74	-143.35	790.94	360.78	-63.621	771.56	174.37	-57.691	782.8	265.58	-64.601	919.66	30.009	-87.61	754.73	933.5	-151.22	707.64	646.38	-176.25	793.58	776.1	228.05	776.84	670.53	-151.48	598.29	1413.2	-46.299	755.74	267.92	-130.78	876.66	39.159	-60.361	566.16	1130.3	-29.409	744.83	75.86	-19.677	762.37	1588.1	-12.019	670.05	638.6	139.25	753.94	1584.4	-84.655	535.54	970.23	41.862	836.21	20.867	-136.85	726.81	60.719	-99.05	783.4	821.82	179.55	559.45	1015.3	-190.62	535.96	969.55	-73.511	594.86	1539	28.71	602.42	337.17	62.734	576.44	1023.5	-260.36	585.91	1543.5	-97.901	522.04	307.03	139.84	523.37	288.2	70.807	446.01	238.3	78.28	384.66	62.731	76.969	405.22	38.478	106.37	539.61	786.38	-283.91	592.51	775.34	-234.91	361.36	200.64	58.314	337.87	208.29	135.92	346.38	77.3	149.03	287.69	227.75	90.654	630.27	1015.4	145.16	680.23	28.311	-43.517
